<svg width="100%" viewBox="0 0 170 32" fill="currentColor" xmlns="http://www.w3.org/2000/svg">
<path d="M25.452 5.3324H45.5005L44.151 10.6648H24.1025L25.452 5.3324Z" fill="url(#paint0_linear_2056_2657)"/>
<path d="M1.3495 21.3325H21.398L20.0456 26.6677H0L1.3495 21.3325Z" fill="url(#paint1_linear_2056_2657)"/>
<path d="M10.9468 5.3324H25.4518L26.8013 0H10.9468C9.79703 0 8.70431 0.235997 7.7143 0.660228C4.83555 1.88797 2.82129 4.7115 2.82129 7.9986C2.82129 9.88376 3.48605 11.6172 4.5959 12.9854C6.0852 14.8228 8.37621 16 10.9468 16H22.7528L24.1023 10.6676H10.9468C9.45181 10.6676 8.23926 9.47357 8.23926 8.0014C8.23641 6.52643 9.44896 5.3324 10.9468 5.3324Z" fill="black"/>
<path d="M34.5566 26.6676H20.0516L18.7021 32H34.5566C35.7064 32 36.7991 31.764 37.7892 31.3398C40.6679 30.1092 42.6822 27.2857 42.6822 23.9986C42.6822 22.1134 42.0174 20.38 40.9076 19.0118C39.4183 17.1744 37.1272 15.9972 34.5566 15.9972H22.7506L21.4011 21.3324H34.5566C36.0516 21.3324 37.2642 22.5264 37.2642 23.9986C37.2642 25.4736 36.0516 26.6676 34.5566 26.6676Z" fill="black"/>
<path d="M69.1929 26.9654C67.4782 26.9654 65.9918 26.6957 64.7335 26.1562C63.4753 25.6168 62.4996 24.8161 61.8092 23.7485C61.1159 22.6809 60.7592 21.3857 60.7393 19.8602H63.5267C63.5267 21.3239 64.0545 22.4562 65.1073 23.2597C66.1601 24.0632 67.5524 24.4621 69.2842 24.4621H69.5952C71.0616 24.4621 72.2057 24.139 73.0303 23.4872C73.8548 22.8354 74.2685 22.0123 74.2685 21.0177C74.2685 20.1243 73.9746 19.3994 73.384 18.8516C72.7963 18.3037 71.8919 17.9076 70.6765 17.6632L67.21 16.9636C65.4554 16.5984 64.1173 15.9382 63.2015 14.9829C62.2828 14.0277 61.8234 12.7382 61.8234 11.1115C61.8234 9.99329 62.143 8.97345 62.7821 8.04913C63.4211 7.12481 64.3141 6.38873 65.4611 5.84088C66.608 5.29022 67.9432 5.0177 69.4696 5.0177C71.036 5.0177 72.4054 5.28741 73.5723 5.82683C74.7364 6.36625 75.6579 7.13605 76.3255 8.14184C76.996 9.15045 77.3527 10.322 77.3954 11.6649H74.608C74.5253 10.4063 74.0231 9.40049 73.1073 8.64755C72.1886 7.89461 71.0274 7.51814 69.6237 7.51814H69.3156C68.3855 7.51814 67.5666 7.66985 66.8534 7.97328C66.1401 8.27951 65.5895 8.70374 65.1957 9.2544C64.802 9.80225 64.608 10.4119 64.608 11.0834C64.608 11.9178 64.8876 12.5977 65.444 13.1259C66.0003 13.654 66.7849 14.0193 67.7949 14.2216L71.2614 14.893C73.1387 15.2583 74.5738 15.9353 75.5666 16.9215C76.5567 17.9076 77.0531 19.2337 77.0531 20.8997C77.0531 22.1387 76.7278 23.2147 76.0773 24.1306C75.4268 25.0465 74.5081 25.7461 73.3213 26.2349C72.1373 26.7209 70.7592 26.9654 69.1929 26.9654Z" fill="black"/>
<path d="M84.7534 26.9653C83.6178 26.9653 82.6535 26.7293 81.8604 26.2629C81.0644 25.7965 80.4652 25.1504 80.0629 24.3272C79.6606 23.504 79.4609 22.5544 79.4609 21.4756V11.4176H82.0915V20.8659C82.0915 22.1667 82.3625 23.1416 82.9103 23.7934C83.4581 24.4452 84.2883 24.7683 85.401 24.7683H85.6806C86.3825 24.7683 87.0444 24.5604 87.6635 24.1418C88.2826 23.7259 88.7876 23.1303 89.1785 22.3577C89.5693 21.5851 89.7662 20.6805 89.7662 19.6438V11.412H92.3967V26.6534H89.7662V23.7569C89.4153 24.7121 88.8076 25.4847 87.9402 26.0719C87.0729 26.6675 86.0116 26.9653 84.7534 26.9653Z" fill="black"/>
<path d="M101.9 26.9654C100.374 26.9654 99.0616 26.6198 97.9689 25.9287C96.8733 25.2376 96.0402 24.2936 95.4611 23.0939C94.8848 21.8943 94.5938 20.5429 94.5938 19.0399C94.5938 17.5368 94.8819 16.1854 95.4611 14.9858C96.0374 13.7861 96.8733 12.8421 97.9689 12.151C99.0616 11.4599 100.374 11.1143 101.9 11.1143C103.056 11.1143 104.089 11.3278 104.996 11.7549C105.903 12.1819 106.631 12.7972 107.179 13.5979C107.726 14.4014 108.052 15.3313 108.154 16.3877H105.524C105.381 15.4746 104.993 14.7329 104.363 14.1626C103.732 13.5951 102.965 13.3085 102.055 13.3085H101.775C100.785 13.3085 99.9432 13.5698 99.2528 14.0868C98.5595 14.6065 98.0488 15.3033 97.7179 16.1742C97.3897 17.0479 97.2243 18.0032 97.2243 19.0399C97.2243 20.6666 97.6151 22.0292 98.4026 23.1249C99.1843 24.2234 100.311 24.7712 101.775 24.7712H102.055C102.962 24.7712 103.726 24.4818 104.346 23.9003C104.965 23.3215 105.356 22.5854 105.521 21.692H108.152C107.966 23.3187 107.313 24.6026 106.186 25.5466C105.064 26.4906 103.635 26.9654 101.9 26.9654Z" fill="black"/>
<path d="M116.554 26.9654C115.027 26.9654 113.715 26.6198 112.622 25.9287C111.527 25.2376 110.694 24.2936 110.114 23.0939C109.538 21.8943 109.247 20.5429 109.247 19.0399C109.247 17.5368 109.535 16.1854 110.114 14.9858C110.691 13.7861 111.527 12.8421 112.622 12.151C113.715 11.4599 115.027 11.1143 116.554 11.1143C117.709 11.1143 118.742 11.3278 119.649 11.7549C120.557 12.1819 121.284 12.7972 121.832 13.5979C122.38 14.4014 122.705 15.3313 122.808 16.3877H120.177C120.035 15.4746 119.646 14.7329 119.016 14.1626C118.385 13.5951 117.618 13.3085 116.708 13.3085H116.428C115.438 13.3085 114.597 13.5698 113.906 14.0868C113.213 14.6065 112.702 15.3033 112.371 16.1742C112.043 17.0479 111.878 18.0032 111.878 19.0399C111.878 20.6666 112.268 22.0292 113.056 23.1249C113.838 24.2234 114.965 24.7712 116.428 24.7712H116.708C117.615 24.7712 118.38 24.4818 118.999 23.9003C119.618 23.3215 120.009 22.5854 120.174 21.692H122.805C122.619 23.3187 121.966 24.6026 120.839 25.5466C119.715 26.4906 118.288 26.9654 116.554 26.9654Z" fill="black"/>
<path d="M124.674 8.44249V5.3324H127.615V8.44249H124.674ZM124.828 26.6592V11.4177H127.458V26.6592H124.828Z" fill="black"/>
<path d="M130.437 26.6591V11.4177H133.067V13.7046C133.561 12.9123 134.237 12.283 135.093 11.8138C135.949 11.3474 136.976 11.1115 138.174 11.1115C139.31 11.1115 140.291 11.3306 141.116 11.7689C141.94 12.2071 142.576 12.8309 143.021 13.6428C143.466 14.4547 143.686 15.4212 143.686 16.5394V26.6591H141.056V17.149C141.056 16.3146 140.936 15.615 140.699 15.0447C140.462 14.4772 140.094 14.0445 139.601 13.7496C139.107 13.4574 138.488 13.3085 137.743 13.3085H137.495C136.648 13.3085 135.889 13.522 135.221 13.949C134.551 14.3761 134.026 14.9801 133.643 15.7611C133.261 16.545 133.07 17.4356 133.07 18.4302V26.6619H130.437V26.6591Z" fill="black"/>
<path d="M153.011 26.9654C151.484 26.9654 150.172 26.6198 149.079 25.9287C147.984 25.2376 147.151 24.2936 146.571 23.0939C145.995 21.8943 145.704 20.5429 145.704 19.0399C145.704 17.5368 145.995 16.1854 146.571 14.9858C147.148 13.7861 147.984 12.8421 149.079 12.151C150.172 11.4599 151.484 11.1143 153.011 11.1143C154.166 11.1143 155.199 11.3278 156.106 11.7549C157.014 12.1819 157.741 12.7972 158.289 13.5979C158.837 14.4014 159.162 15.3313 159.265 16.3877H156.634C156.492 15.4746 156.104 14.7329 155.473 14.1626C154.842 13.5951 154.075 13.3085 153.165 13.3085H152.885C151.895 13.3085 151.054 13.5698 150.363 14.0868C149.67 14.6065 149.159 15.3033 148.828 16.1742C148.5 17.0479 148.335 18.0032 148.335 19.0399C148.335 20.6666 148.725 22.0292 149.513 23.1249C150.295 24.2234 151.422 24.7712 152.885 24.7712H153.165C154.072 24.7712 154.837 24.4818 155.456 23.9003C156.075 23.3215 156.466 22.5854 156.631 21.692H159.262C159.076 23.3187 158.423 24.6026 157.296 25.5466C156.175 26.4906 154.745 26.9654 153.011 26.9654Z" fill="black"/>
<path d="M166.377 26.6592C165.324 26.6592 164.52 26.3895 163.964 25.8501C163.404 25.3135 163.128 24.5352 163.128 23.5182V13.6429H159.661V11.4178H163.128V6.4787H165.758V11.4178H169.536V13.6429H165.758V23.1558C165.758 23.6025 165.849 23.9172 166.038 24.0998C166.223 24.2824 166.543 24.3751 166.996 24.3751H170.001V26.662H166.377V26.6592Z" fill="black"/>
<defs>
<linearGradient id="paint0_linear_2056_2657" x1="23.4854" y1="10.6648" x2="47.3683" y2="10.6648" gradientUnits="userSpaceOnUse">
<stop/>
<stop offset="1" stop-opacity="0"/>
</linearGradient>
<linearGradient id="paint1_linear_2056_2657" x1="19.6605" y1="26.6677" x2="-1.16686" y2="26.6677" gradientUnits="userSpaceOnUse">
<stop/>
<stop offset="1" stop-opacity="0"/>
</linearGradient>
</defs>
</svg>
